<?xml version="1.0" encoding="utf-8"?>
<!-- Generator: Adobe Illustrator 25.4.1, SVG Export Plug-In . SVG Version: 6.00 Build 0)  -->
<svg version="1.1" id="Layer_2" xmlns="http://www.w3.org/2000/svg" xmlns:xlink="http://www.w3.org/1999/xlink" x="0px" y="0px"
	 viewBox="0 0 50 50" style="enable-background:new 0 0 50 50;" xml:space="preserve">
<style type="text/css">
	.st0{fill:#1D1D1B;}
	.st1{fill:none;}
	.st2{fill:#FFFFFF;}
	.st3{fill:#070707;}
	.st4{fill:#0A0A05;}
	.st5{fill:#FCFCFA;}
</style>
<g>
	<path class="st0" d="M42.28,21.38c0,0.03-0.01,0.06-0.04,0.09l-0.01,0.01c-0.04,0.01-0.12,0.04-0.24,0.04h-0.09l-11.4-0.95
		c-1.71-0.13-3.47,0.03-5.16,0.04H25.1c-0.4,0-0.79-0.01-1.18-0.04l-5.22,0.28l-5.05,0.27l-1.52,0.07l0.25-0.52l2.16-4.37
		c0.27-0.51,0.73-0.88,1.36-1.33l-2.04,5.55c0.1-0.01,0.22-0.01,0.33-0.03c1.42-0.13,2.85-0.25,4.26-0.33l-2.09-5.52
		c0.33-0.22,0.69-0.46,1.07-0.76c0.55-0.4,1.21-0.63,1.8-0.97c0.1-0.04,0.21-0.12,0.31-0.18l0.22-0.15
		c1.04-0.21,3.22-0.45,5.41-0.52h0.04c2.18-0.06,4.37,0.04,5.55,0.52l4.13,0.37c2.22,0,3.52,2.01,4.46,3.71
		c0.1,0.19,0.66,0.63,0.98,1.18l1.54,2.68l0.37,0.66C42.26,21.2,42.31,21.29,42.28,21.38z"/>
	<path class="st1" d="M18.45,20.17c-1.42,0.07-2.85,0.19-4.26,0.33c-0.1,0.01-0.22,0.01-0.33,0.03l2.04-5.55
		c0.15-0.1,0.3-0.21,0.46-0.33L18.45,20.17z"/>
	<path class="st2" d="M16.37,14.66c-0.16,0.12-0.31,0.22-0.46,0.33l0.28-0.79L16.37,14.66z"/>
	<path class="st2" d="M19.22,22.17l-5.96,0.04l0.25-0.7l0.15-0.39l0.21-0.6c0.1-0.01,0.22-0.01,0.33-0.03
		c1.42-0.13,2.85-0.25,4.26-0.33l0.25,0.69l0.16,0.4L19.22,22.17z"/>
	<path class="st0" d="M47.33,33.77l-0.11-7.28c-0.06-1.2-0.94-2.1-1.92-2.76c-0.99-0.67-2.07-1.22-3.14-1.78l-0.11-0.06l-0.03-0.17
		c-0.11-0.72-0.64-1.54-1.06-2.27c-0.46-0.75-0.95-1.48-1.45-2.2c-0.51-0.72-1.04-1.43-1.58-2.11c-0.27-0.34-0.55-0.68-0.84-1
		c-0.17-0.18-0.25-0.27-0.41-0.35c-0.17-0.08-0.35-0.16-0.55-0.22c-1.63-0.45-3.42-0.55-5.17-0.65c-1.76-0.08-3.53-0.1-5.29-0.08
		l0.48-0.48l0.09,8.04l-0.55-0.57c3.52,0.13,7.03,0.35,10.55,0.67c1.76,0.18,3.51,0.3,5.28,0.67c0.21,0.04,0.46,0.11,0.7,0.19
		c0.28,0.04,0.62,0.47,0.6,0.77c0.03,0.59-0.17,1.01-0.35,1.44c-0.39,0.83-0.87,1.58-1.41,2.3l-0.26-0.32l2.88-1
		c0.03-0.01,0.06,0.01,0.07,0.03c0.01,0.03,0,0.06-0.03,0.07l-2.76,1.3l-0.64,0.3l0.38-0.62c0.45-0.74,0.88-1.5,1.19-2.29
		c0.15-0.38,0.27-0.82,0.23-1.11c-0.05-0.14-0.02-0.13-0.18-0.18c-0.18-0.04-0.36-0.1-0.58-0.12c-1.69-0.23-3.46-0.34-5.21-0.44
		l-10.52-0.5l-0.56-0.03l0.01-0.55l0.09-8.04l0.01-0.49l0.48,0.01c1.78,0.02,3.56,0.08,5.34,0.2c1.78,0.15,3.56,0.26,5.35,0.79
		c0.22,0.07,0.45,0.16,0.68,0.29c0.24,0.12,0.46,0.36,0.59,0.51c0.3,0.35,0.58,0.7,0.85,1.05c0.54,0.71,1.06,1.44,1.56,2.18
		c0.5,0.74,0.98,1.49,1.43,2.27c0.42,0.8,0.93,1.51,1.07,2.56L42.4,21.5c1.07,0.59,2.14,1.17,3.15,1.89
		c0.5,0.37,0.97,0.78,1.36,1.29c0.38,0.52,0.6,1.15,0.63,1.78l-0.09,7.3c0,0.03-0.03,0.06-0.06,0.06
		C47.36,33.82,47.33,33.8,47.33,33.77z"/>
	<path class="st0" d="M43.72,26.73c-1.76,0.22-3.51,0.5-5.23,0.86c-0.86,0.18-1.72,0.38-2.55,0.63c0,0-0.11,0.03-0.02,0.01
		c0.12-0.03,0.22-0.22,0.2-0.32c0-0.03,0-0.06-0.01-0.09c-0.03-0.08-0.04-0.08-0.03-0.07c-0.01-0.01,0.04,0.04,0.07,0.06l0.24,0.18
		c0.17,0.12,0.35,0.23,0.53,0.33c0.18,0.1,0.37,0.2,0.47,0.2l0.66,0.1c1.75,0.26,3.52,0.46,5.25,0.86l0.65,0.15
		c0.22,0.05,0.48,0.11,0.44,0.11c0.03,0.01,0.09-0.01,0.11-0.06c0.02-0.07,0.04-0.4,0.06-0.59c0.08-0.89,0.17-1.77,0.33-2.66H45
		c0.16,0.89,0.25,1.77,0.33,2.66c0.02,0.26,0.06,0.37,0.04,0.74c-0.05,0.4-0.35,0.75-0.74,0.86c-0.17,0.07-0.48,0.03-0.54,0.02
		l-0.33-0.04l-0.66-0.09c-1.76-0.25-3.48-0.7-5.21-1.08l-0.65-0.14c-0.34-0.07-0.53-0.22-0.73-0.34c-0.2-0.13-0.39-0.26-0.57-0.41
		c-0.09-0.07-0.18-0.15-0.28-0.24c-0.05-0.05-0.09-0.08-0.16-0.18c-0.01-0.01-0.04-0.04-0.08-0.14c-0.01-0.04-0.02-0.09-0.02-0.13
		c-0.01-0.1,0.1-0.3,0.23-0.35c0.13-0.05,0.08-0.02,0.13-0.04c0.88-0.21,1.76-0.36,2.65-0.48c1.77-0.22,3.54-0.35,5.32-0.43
		L43.72,26.73z"/>
	<path class="st3" d="M41.88,21.53l1.7-0.28c0.44-0.03,0.88-0.05,1.32-0.08c1.03,0.05,3.1,0.05,3.1-0.87c0-1.22-0.09-0.99-1.22-1.45
		c-1.33-0.54-2.88-0.12-2.88-0.12s-0.75,0.85-0.76,1.46c-0.03,0.11-0.03,0.11-0.03,0.11h-1.22V21.53z"/>
	<path class="st4" d="M41.65,33.08l-3.76,2.42c-0.16,0.1-0.31,0.2-0.48,0.28c-0.2,0.1-0.17,0.08-0.25,0.16
		c-0.03,0.02-0.1,0.19-0.18,0.37l-0.23,0.51l-0.46,1.01l-0.06,0.13c0.01-0.02,0.03-0.12,0-0.18c-0.01-0.13-0.23-0.21-0.24-0.19
		l0.56,0.02c0.75,0.07,1.46,0.04,2.18-0.01c0.72,0,1.45-0.09,2.19-0.22c1.48-0.15,2.93-0.46,4.39-0.71c0.02,0,0.04,0.01,0.05,0.03
		c0,0.02-0.01,0.04-0.03,0.05c-1.44,0.33-2.9,0.6-4.32,1.03c-0.71,0.2-1.43,0.37-2.2,0.46c-0.76,0.13-1.52,0.23-2.25,0.24
		l-0.56,0.02c-0.2,0.04-0.61-0.17-0.67-0.48c-0.05-0.14-0.02-0.35,0.03-0.45l0.05-0.13l0.39-1.04l0.2-0.52l0.1-0.26
		c0.03-0.09,0.11-0.26,0.2-0.36c0.14-0.23,0.49-0.45,0.63-0.49c0.16-0.08,0.34-0.15,0.51-0.22l4.19-1.56c0.02-0.01,0.05,0,0.05,0.02
		C41.67,33.05,41.67,33.07,41.65,33.08z"/>
	<path class="st0" d="M25.33,20.62V20.4l-0.09-8.03v-0.49h-0.48c-1.79,0.03-3.56,0.09-5.34,0.21c-1.79,0.15-3.56,0.25-5.35,0.79
		c-0.22,0.07-0.45,0.16-0.67,0.28c-0.24,0.12-0.46,0.36-0.6,0.52c-0.3,0.34-0.57,0.69-0.85,1.04c-0.54,0.72-1.06,1.45-1.55,2.18
		c-0.51,0.75-0.98,1.49-1.43,2.27c-0.21,0.39-0.43,0.75-0.63,1.15c-0.18,0.34-0.31,0.72-0.4,1.13c0,0.01,0,0.04-0.01,0.06
		c-0.03,0.03-0.06,0.07-0.1,0.1c-1,0.55-2,1.1-2.94,1.79c-0.51,0.37-0.97,0.79-1.36,1.3c-0.39,0.51-0.6,1.15-0.64,1.77l0.09,7.3
		c0,0.03,0.03,0.06,0.06,0.06c0.03,0,0.06-0.03,0.06-0.06l0.1-7.27c0.06-1.21,0.94-2.12,1.92-2.77c0.78-0.54,1.61-0.98,2.47-1.43
		c0.01,0.52,0.19,0.89,0.36,1.28c0.28,0.6,0.61,1.16,0.98,1.7l-1.91-0.73c-0.01-0.01-0.04,0-0.06,0.03
		c-0.01,0.03-0.01,0.06,0.01,0.07l2.46,1.28l0.67,0.37l-0.4-0.69c-0.45-0.73-0.89-1.51-1.21-2.28c-0.13-0.39-0.27-0.82-0.22-1.12
		c0.06-0.13,0.01-0.13,0.18-0.18c0.19-0.04,0.36-0.09,0.58-0.12c1.45-0.19,2.95-0.31,4.46-0.4c0.25-0.01,0.51-0.03,0.76-0.04
		l4.61-0.21l5.9-0.28l0.45-0.03h0.12L25.33,20.62z M8.9,21.17c-0.12,0.01-0.24,0.04-0.36,0.09c-0.01,0-0.01,0-0.01,0
		c0-0.01,0.01-0.03,0.01-0.04c0.21-0.58,0.6-1.19,0.92-1.76c0.45-0.76,0.94-1.49,1.45-2.21c0.51-0.72,1.04-1.43,1.58-2.12
		c0.28-0.34,0.55-0.69,0.85-1c0.16-0.18,0.24-0.27,0.4-0.36c0.16-0.07,0.36-0.15,0.55-0.21c1.55-0.45,3.28-0.54,4.95-0.64
		c0.07,0,0.15-0.01,0.22-0.01c1.6-0.07,3.19-0.1,4.8-0.07l-0.09,7.02c-1.91,0.07-3.82,0.16-5.72,0.31
		c-1.42,0.07-2.85,0.19-4.26,0.33c-0.1,0.01-0.22,0.01-0.33,0.03c-0.49,0.04-0.98,0.09-1.48,0.15C11.23,20.78,10.06,20.93,8.9,21.17
		z"/>
	<path class="st0" d="M23.84,28.27L19.1,38.79h-1.3c-0.34,0-0.67-0.21-0.83-0.52l-0.27-0.54c-0.52-1.04-2.01-7.75-2.01-7.75
		c-0.06-0.25,0.03-0.52,0.21-0.7l0.79-0.79c0.15-0.15,0.34-0.22,0.55-0.22H23.84z"/>
	<polygon class="st0" points="22.84,34.86 24.83,30.18 26.85,34.86 	"/>
	<polygon class="st0" points="27.5,36.42 28.53,38.79 21.15,38.79 22.15,36.42 	"/>
	<path class="st0" d="M35.75,29.98c0,0-1.49,6.71-2.01,7.75l-0.27,0.54c-0.16,0.31-0.49,0.52-0.83,0.52h-2.01l-4.76-10.52h8.33
		c0.21,0,0.4,0.07,0.55,0.22l0.79,0.79C35.72,29.46,35.81,29.73,35.75,29.98z"/>
	<path class="st0" d="M6.72,26.62c1.78,0.07,3.55,0.2,5.32,0.43c0.88,0.12,1.77,0.27,2.65,0.48c0.05,0.02,0-0.01,0.13,0.04
		c0.13,0.04,0.24,0.25,0.23,0.35c0,0.05-0.01,0.09-0.02,0.13c-0.04,0.11-0.07,0.13-0.08,0.14c-0.07,0.1-0.11,0.13-0.16,0.18
		c-0.1,0.09-0.19,0.16-0.28,0.24c-0.19,0.15-0.37,0.28-0.57,0.41c-0.2,0.12-0.39,0.27-0.73,0.34l-0.65,0.14
		c-1.73,0.38-3.45,0.83-5.21,1.08l-0.66,0.09l-0.33,0.04c-0.06,0.01-0.38,0.05-0.54-0.02c-0.4-0.12-0.7-0.47-0.74-0.86
		c-0.02-0.37,0.03-0.49,0.04-0.74c0.08-0.89,0.17-1.77,0.33-2.66h0.11c0.16,0.89,0.25,1.77,0.33,2.66c0.02,0.19,0.04,0.52,0.06,0.59
		c0.02,0.05,0.08,0.07,0.11,0.06C6,29.74,6.27,29.68,6.48,29.63l0.65-0.15c1.73-0.39,3.5-0.59,5.25-0.86l0.66-0.1
		c0.1,0,0.29-0.1,0.47-0.2c0.18-0.1,0.36-0.21,0.53-0.33l0.24-0.18c0.03-0.02,0.08-0.07,0.07-0.06c0.01-0.01,0-0.01-0.03,0.07
		c-0.01,0.03-0.01,0.06-0.01,0.09c-0.02,0.09,0.08,0.28,0.2,0.32c0.08,0.03-0.02-0.01-0.02-0.01c-0.83-0.26-1.69-0.46-2.55-0.63
		c-1.72-0.37-3.48-0.65-5.23-0.86L6.72,26.62z"/>
	<path class="st3" d="M8.55,21.53l-1.7-0.28c-0.44-0.03-0.88-0.05-1.32-0.08c-1.03,0.05-3.1,0.05-3.1-0.87
		c0-1.22,0.09-0.99,1.22-1.45c1.33-0.54,2.88-0.12,2.88-0.12s0.75,0.85,0.76,1.46c0.03,0.11,0.03,0.11,0.03,0.11h1.22V21.53z"/>
	<path class="st4" d="M8.82,33.01L13,34.56c0.17,0.07,0.35,0.13,0.51,0.22c0.14,0.05,0.49,0.27,0.63,0.49
		c0.08,0.11,0.16,0.27,0.2,0.36l0.1,0.26l0.2,0.52l0.39,1.04l0.05,0.13c0.05,0.1,0.08,0.3,0.03,0.45c-0.05,0.31-0.47,0.52-0.67,0.48
		l-0.56-0.02c-0.73-0.01-1.49-0.12-2.25-0.24c-0.76-0.09-1.49-0.26-2.2-0.46c-1.42-0.43-2.88-0.71-4.32-1.03
		c-0.02-0.01-0.04-0.03-0.03-0.05c0-0.02,0.03-0.04,0.05-0.03c1.46,0.26,2.91,0.56,4.39,0.71c0.73,0.12,1.47,0.21,2.19,0.22
		c0.72,0.04,1.43,0.07,2.18,0.01l0.56-0.02c-0.01-0.02-0.24,0.07-0.24,0.19c-0.02,0.05-0.01,0.16,0,0.18l-0.06-0.13l-0.46-1.01
		l-0.23-0.51c-0.08-0.18-0.15-0.35-0.18-0.37c-0.08-0.08-0.05-0.06-0.25-0.16c-0.17-0.08-0.32-0.18-0.48-0.28l-3.76-2.42
		c-0.02-0.01-0.02-0.04-0.01-0.06C8.78,33.01,8.8,33,8.82,33.01z"/>
	<g>
		<path class="st5" d="M30.62,38.79h-2.09l0.04,0.1h2.09L30.62,38.79z M23.87,28.19l-0.03,0.07h2.03l-0.03-0.07H23.87z M19.05,38.9
			h2.06l0.04-0.1H19.1L19.05,38.9z"/>
		<path class="st1" d="M25.86,28.27h-2.03L19.1,38.79h2.06l1-2.37h5.35l1.03,2.37h2.09L25.86,28.27z M22.84,34.86l2-4.68l2.01,4.68
			H22.84z"/>
	</g>
</g>
</svg>
